PathFileType	4	(X/Y/Z)	C:/Users/opensim2020/Desktop/walking_exp_matlab/subject01_walking04_straight_04.trc																																																																																																																															
DataRate	CameraRate	NumFrames	NumMarkers	Units	OrigDataRate	OrigDataStartFrame	OrigNumFrames																																																																																																																											
100	100	6	43	mm	100	2697	279																																																																																																																											
Frame#	Time	LFHD			RFHD			LBHD			RBHD			C7			T10			CLAV			STRN			RBAK			LSHO			LUPA			LELB			LFRM			LWRA			LWRB			LFIN			RSHO			RUPA			RELB			RFRM			RWRA			RWRB			RFIN			LASI			RASI			LPSI			RPSI			LTHI			LKNE			LTIB			LANK			LHEE			LTOE			RTHI			RKNE			RTIB			RANK			RHEE			RTOE			*39			*40			*41			*42		
		X1	Y1	Z1	X2	Y2	Z2	X3	Y3	Z3	X4	Y4	Z4	X5	Y5	Z5	X6	Y6	Z6	X7	Y7	Z7	X8	Y8	Z8	X9	Y9	Z9	X10	Y10	Z10	X11	Y11	Z11	X12	Y12	Z12	X13	Y13	Z13	X14	Y14	Z14	X15	Y15	Z15	X16	Y16	Z16	X17	Y17	Z17	X18	Y18	Z18	X19	Y19	Z19	X20	Y20	Z20	X21	Y21	Z21	X22	Y22	Z22	X23	Y23	Z23	X24	Y24	Z24	X25	Y25	Z25	X26	Y26	Z26	X27	Y27	Z27	X28	Y28	Z28	X29	Y29	Z29	X30	Y30	Z30	X31	Y31	Z31	X32	Y32	Z32	X33	Y33	Z33	X34	Y34	Z34	X35	Y35	Z35	X36	Y36	Z36	X37	Y37	Z37	X38	Y38	Z38	X39	Y39	Z39	X40	Y40	Z40	X41	Y41	Z41	X42	Y42	Z42	X43	Y43	Z43
																																																																																																																																		
1	0	-1804.50671	1668.77722	-1265.66455	-1741.83032	1667.46667	-1168.14709	-1907.77441	1627.89478	-1207.61096	-1848.6062	1626.04053	-1105.88379	-1940.4491	1430.27405	-1157.9646	-1970.45837	1137.28601	-1149.50549	-1812.23877	1363.73071	-1223.21228	-1774.6355	1212.77979	-1254.9502	-1958.89539	1229.78699	-1077.37354	-1936.87598	1399.46973	-1340.91687	-2003.20728	1225.90759	-1420.62329	-2009.4458	1075.60315	-1451.38	-1932.71765	1019.45129	-1525.29248	-1805.36609	993.92609	-1576.07263	-1847.75793	951.72919	-1580.43262	-1785.75049	940.36169	-1634.01892	-1804.87256	1383.3092	-1055.80469	-1837.38574	1183.96948	-946.51367	-1853.55347	1062.81506	-942.35651	-1841.93005	943.59845	-915.34265	-1798.84741	810.63232	-950.98792	-1825.34448	822.22913	-899.53735	-1814.02173	736.10162	-910.07275	-1872.71985	930.25403	-1329.51538	-1760.85437	936.69989	-1143.20447	-2005.453	946.40228	-1189.85193	-1930.60999	947.37927	-1064.49902	-1978.60938	606.12378	-1360.78577	-2011.89221	475.14435	-1346.19666	-2139.01318	352.77133	-1271.94812	-2239.2627	181.48019	-1167.02124	-2235.30591	182.54539	-1095.94287	-2204.56519	47.66069	-1224.75159	-1735.68372	606.98096	-1102.04175	-1714.63098	457.24936	-1154.16272	-1742.28796	281.75229	-1145.84692	-1767.72913	82.07661	-1203.44739	-1830.70447	44.28777	-1235.47339	-1637.01343	46.75099	-1251.43872	-1760.09106	1702.95911	-1182.052	-1973.34094	1023.3678	3101.87085	-2012.55481	1022.021	3140.60181	NaN	NaN	NaN
2	0.01	-1795.94421	1669.46448	-1267.09229	-1733.74133	1667.86035	-1169.33984	-1899.48059	1628.1593	-1209.84338	-1840.771	1626.07751	-1107.88721	-1932.11438	1430.65137	-1161.16809	-1961.9436	1137.66516	-1153.0509	-1803.41223	1364.27576	-1225.66418	-1765.42944	1213.29358	-1257.2041	-1950.54236	1230.18213	-1080.69202	-1927.24927	1399.90137	-1343.8761	-1993.89941	1226.36841	-1423.46606	-2001.44678	1075.92053	-1452.72925	-1925.11938	1017.70288	-1525.67566	-1797.87793	989.43915	-1575.67236	-1841.01892	947.90009	-1579.72559	-1778.7373	934.64758	-1632.82349	-1797.05383	1384.14661	-1058.23108	-1829.25818	1184.34021	-949.47144	-1844.50684	1063.06226	-945.72009	-1831.56372	943.84338	-919.13007	-1786.93176	811.44165	-955.34839	-1813.73645	822.54382	-904.07739	-1801.4635	736.55682	-914.93134	-1862.16052	931.0968	-1331.6991	-1752.06104	937.28864	-1144.85864	-1996.33777	946.77106	-1193.65088	-1922.32483	947.99023	-1067.83167	-1962.19678	605.44666	-1369.8479	-1993.9519	474.04599	-1356.44409	-2123.78735	355.62521	-1282.1355	-2227.81055	187.78749	-1175.10315	-2222.68677	190.90596	-1103.68494	-2199.9895	50.30734	-1226.49194	-1729.95447	606.64325	-1103.67981	-1708.8468	456.6113	-1155.63721	-1739.15869	281.71838	-1147.17395	-1767.4198	82.04594	-1203.80127	-1830.6449	44.32922	-1235.52588	-1636.5376	46.17298	-1251.4458	-1752.10864	1703.32056	-1183.18445	-1973.14563	1023.35962	3101.9751	-2012.57495	1022.03662	3140.62158	NaN	NaN	NaN
3	0.02	-1787.54089	1670.20557	-1268.94226	-1725.74133	1668.3136	-1170.64368	-1891.25146	1628.44482	-1212.36646	-1833.35681	1626.09839	-1110.08936	-1923.67932	1430.87964	-1164.23413	-1953.40796	1138.0188	-1156.45398	-1794.60645	1364.70581	-1228.07507	-1756.53882	1213.6604	-1259.15271	-1942.19177	1230.66772	-1083.72119	-1917.78491	1400.2124	-1346.92664	-1984.48682	1226.45874	-1426.22412	-1993.22388	1075.80115	-1453.66455	-1917.29785	1015.51776	-1525.64502	-1790.58459	984.70325	-1575.35962	-1834.48962	943.89813	-1579.08948	-1771.87427	928.83704	-1631.7207	-1789.01294	1384.82202	-1060.94714	-1821.08789	1184.91565	-952.23499	-1835.4176	1063.37048	-949.10889	-1821.27356	944.02368	-923.07361	-1774.55823	812.48108	-959.97528	-1801.77209	822.90881	-908.66821	-1788.42139	737.11572	-919.87109	-1852.00073	931.87573	-1333.98145	-1743.44116	937.84045	-1146.59766	-1987.47937	946.9903	-1197.28418	-1914.27258	948.44275	-1070.97766	-1945.75659	604.65686	-1378.32263	-1976.18176	473.30603	-1366.72644	-2107.39844	357.05957	-1292.29688	-2215.99634	194.35764	-1183.00684	-2210.56934	199.73001	-1111.854	-2193.05225	54.04942	-1229.25525	-1725.16296	606.63348	-1105.32092	-1703.85425	456.28128	-1157.5752	-1736.1698	281.57535	-1148.29858	-1767.18579	82.12656	-1203.93335	-1830.59766	44.35587	-1235.56189	-1636.33411	45.77846	-1251.67126	-1744.16187	1703.66577	-1184.53564	-1973.10718	1023.39124	3101.7876	-2012.52734	1021.95874	3140.72583	NaN	NaN	NaN
4	0.03	-1779.04846	1670.94971	-1270.8053	-1717.78589	1668.82703	-1172.05945	-1883.06299	1628.80505	-1214.94287	-1825.7887	1626.57642	-1111.39575	-1915.43555	1431.24207	-1167.46875	-1944.97058	1138.35437	-1159.66992	-1785.94788	1365.16577	-1230.57764	-1747.57117	1214.10461	-1261.33972	-1933.91589	1231.26184	-1086.53296	-1908.55859	1400.48682	-1350.17529	-1975.57361	1226.78442	-1429.63098	-1985.21411	1075.63403	-1454.95972	-1909.99268	1013.11963	-1526.08923	-1783.41772	979.64032	-1574.99792	-1828.08557	939.58337	-1578.46338	-1765.06958	922.52399	-1630.38391	-1781.1626	1385.53894	-1063.35071	-1812.66711	1185.52588	-955.05249	-1826.46277	1063.63513	-952.24664	-1810.69507	944.091	-926.79498	-1762.10742	813.42853	-964.51257	-1789.56262	823.23334	-913.3089	-1774.97876	737.70819	-924.92316	-1842.40833	932.71155	-1336.66821	-1735.047	938.01953	-1148.09387	-1978.82434	947.04523	-1200.81226	-1906.45325	948.78094	-1074.073	-1929.41467	604.10449	-1386.34253	-1958.22522	472.37311	-1376.37842	-2090.9707	358.67166	-1302.75378	-2203.24414	200.85756	-1190.8468	-2198.49683	208.23282	-1120.38452	-2183.35034	58.58158	-1233.70654	-1719.48718	606.49023	-1106.48804	-1699.00757	455.75287	-1157.95264	-1733.61475	281.38718	-1149.17859	-1767.05908	82.15683	-1204.07556	-1830.61182	44.4081	-1235.57556	-1636.14539	45.44732	-1251.77795	-1736.23682	1704.13733	-1186.03943	-1973.08643	1023.28412	3101.9458	-2012.58923	1022.05072	3140.71094	NaN	NaN	NaN
5	0.04	-1770.47144	1671.6991	-1272.68384	-1709.84741	1669.47852	-1173.67737	-1874.67529	1629.24133	-1217.62354	-1818.24365	1626.89758	-1113.81921	-1907.27966	1431.74683	-1170.77063	-1936.54675	1138.7417	-1162.83484	-1777.25415	1365.50525	-1232.80383	-1738.8269	1214.49255	-1263.3573	-1925.64844	1231.88574	-1089.37842	-1899.3009	1400.61145	-1353.36865	-1966.38989	1226.69409	-1432.48657	-1976.95471	1075.25708	-1456.29761	-1902.77539	1010.41071	-1526.53076	-1776.41809	974.21191	-1574.52209	-1821.88843	934.98511	-1577.86072	-1758.48486	915.99017	-1628.99414	-1773.22021	1386.30237	-1066.09827	-1804.36353	1186.21094	-957.54749	-1817.61365	1063.82642	-955.21472	-1800.14795	944.16608	-930.54608	-1749.91663	814.58368	-969.47638	-1776.90466	823.53113	-918.03687	-1760.86499	738.52002	-930.42609	-1832.7644	933.05359	-1339.09656	-1726.87402	938.21454	-1149.74097	-1970.4762	946.97705	-1204.3717	-1898.74939	949.00958	-1077.12061	-1913.24329	603.88409	-1393.69897	-1939.99011	471.58884	-1385.30103	-2074.28516	360.29205	-1313.06799	-2189.54395	206.96173	-1199.32434	-2186.14355	215.59338	-1129.29309	-2170.23926	62.94985	-1238.9646	-1713.87671	606.28986	-1107.98352	-1694.64856	454.96573	-1159.52942	-1731.41028	281.08014	-1149.94592	-1766.90515	82.13923	-1204.28772	-1830.53247	44.48482	-1235.62341	-1636.0791	45.31098	-1252.04553	-1728.26965	1704.6405	-1187.67407	-1973.14392	1023.39178	3101.99561	-2012.66028	1022.07782	3140.68286	NaN	NaN	NaN
6	0.05	-1761.88416	1672.38953	-1274.80188	-1701.86169	1670.03003	-1175.4259	-1866.4021	1629.74915	-1220.54333	-1810.63293	1627.23022	-1116.45789	-1898.92273	1432.2345	-1173.95508	-1928.22412	1139.2594	-1165.85925	-1768.83093	1366.10046	-1235.55566	-1730.19092	1214.8468	-1265.35388	-1917.49023	1232.60364	-1092.09094	-1890.16345	1400.71643	-1356.53638	-1957.39893	1226.6366	-1435.35059	-1968.8031	1074.78711	-1457.75867	-1895.66589	1007.60883	-1527.09546	-1769.63452	968.5611	-1574.17358	-1815.82556	930.09589	-1577.16223	-1752.14465	909.12561	-1627.48181	-1765.37146	1387.0481	-1069.11584	-1795.78174	1186.8158	-960.11493	-1808.62451	1064.00769	-958.242	-1789.37463	944.20642	-934.28186	-1735.74353	816.22131	-973.92084	-1764.06384	823.89832	-922.70935	-1746.34778	739.26447	-935.70703	-1823.35278	933.46155	-1341.49512	-1718.97412	938.44928	-1151.4209	-1962.29504	946.76465	-1207.92896	-1891.64966	949.40167	-1080.22119	-1897.19458	604.0246	-1400.59875	-1921.63977	471.38745	-1393.82092	-2057.34912	362.36356	-1323.04907	-2175.01782	212.03616	-1208.63977	-2173.79565	221.76152	-1138.56555	-2154.69995	67.01462	-1244.89343	-1708.45105	606.16064	-1109.65088	-1690.42578	454.34576	-1160.03076	-1729.34058	280.72897	-1150.5155	-1766.66382	82.12106	-1204.42395	-1830.46985	44.58998	-1235.64148	-1635.81885	45.07515	-1252.19031	-1720.34802	1705.23352	-1189.45581	-1973.17273	1023.29626	3101.90698	-2012.61719	1022.16034	3140.646	NaN	NaN	NaN
